<svg width="27" height="28" viewBox="0 0 27 28" fill="none" xmlns="http://www.w3.org/2000/svg">
<path d="M19.5081 12.9326C19.5081 13.6001 19.3101 14.2527 18.9393 14.8077C18.5684 15.3627 18.0413 15.7953 17.4246 16.0507C16.8079 16.3062 16.1293 16.373 15.4746 16.2428C14.8199 16.1125 14.2186 15.7911 13.7466 15.3191C13.2746 14.8471 12.9531 14.2457 12.8229 13.591C12.6927 12.9364 12.7595 12.2578 13.015 11.6411C13.2704 11.0244 13.703 10.4973 14.258 10.1264C14.813 9.75556 15.4655 9.55762 16.1331 9.55762C17.0278 9.55864 17.8857 9.91455 18.5184 10.5473C19.1511 11.18 19.507 12.0378 19.5081 12.9326ZM26.6799 8.29199V17.5732C26.6782 19.1391 26.0553 20.6404 24.9481 21.7476C23.8408 22.8549 22.3396 23.4777 20.7737 23.4795H11.4924C9.92654 23.4777 8.42529 22.8549 7.31804 21.7476C6.21079 20.6404 5.58796 19.1391 5.58618 17.5732V8.29199C5.58796 6.7261 6.21079 5.22485 7.31804 4.1176C8.42529 3.01035 9.92654 2.38752 11.4924 2.38574H20.7737C22.3396 2.38752 23.8408 3.01035 24.9481 4.1176C26.0553 5.22485 26.6782 6.7261 26.6799 8.29199ZM21.1956 12.9326C21.1956 11.9313 20.8986 10.9526 20.3424 10.12C19.7861 9.28752 18.9954 8.63865 18.0704 8.25548C17.1453 7.87231 16.1274 7.77205 15.1454 7.96739C14.1634 8.16273 13.2613 8.64489 12.5533 9.35289C11.8453 10.0609 11.3632 10.9629 11.1678 11.945C10.9725 12.927 11.0727 13.9449 11.4559 14.87C11.8391 15.795 12.488 16.5857 13.3205 17.1419C14.153 17.6982 15.1318 17.9951 16.1331 17.9951C17.4752 17.9936 18.762 17.4597 19.7111 16.5107C20.6602 15.5616 21.194 14.2748 21.1956 12.9326ZM22.8831 7.44824C22.8831 7.19793 22.8088 6.95323 22.6698 6.7451C22.5307 6.53697 22.333 6.37475 22.1018 6.27896C21.8705 6.18316 21.616 6.1581 21.3705 6.20694C21.125 6.25577 20.8995 6.37631 20.7225 6.55331C20.5455 6.73031 20.425 6.95582 20.3761 7.20133C20.3273 7.44684 20.3524 7.70131 20.4481 7.93258C20.5439 8.16384 20.7062 8.3615 20.9143 8.50057C21.1224 8.63964 21.3671 8.71387 21.6174 8.71387C21.9531 8.71387 22.275 8.58052 22.5124 8.34317C22.7497 8.10582 22.8831 7.78391 22.8831 7.44824Z" fill="white"/>
</svg>
